<svg xmlns="http://www.w3.org/2000/svg">
    <symbol viewBox="0 0 53 14" id="dots">
        <g id="Page-1" stroke="none" stroke-width="1" fill="none" fill-rule="evenodd">
            <g id="Landing-page" transform="translate(-698.000000, -3187.000000)" fill="#223AFF">
                <g id="Group-4-Copy-3" transform="translate(698.500000, 3187.455801)">
                    <circle id="Oval" cx="11.3500061" cy="1.5" r="1.5"/>
                    <circle id="Oval-Copy-12" cx="6.42500305" cy="6.40649414" r="1.5"/>
                    <circle id="Oval-Copy-21" cx="1.5" cy="11.3129883" r="1.5"/>
                    <circle id="Oval-Copy-4" cx="16.2750092" cy="1.5" r="1.5"/>
                    <circle id="Oval-Copy-13" cx="11.3500061" cy="6.40649414" r="1.5"/>
                    <circle id="Oval-Copy-22" cx="6.42500305" cy="11.3129883" r="1.5"/>
                    <circle id="Oval-Copy-5" cx="21.2000122" cy="1.5" r="1.5"/>
                    <circle id="Oval-Copy-14" cx="16.2750092" cy="6.40649414" r="1.5"/>
                    <circle id="Oval-Copy-23" cx="11.3500061" cy="11.3129883" r="1.5"/>
                    <circle id="Oval-Copy-6" cx="26.1250153" cy="1.5" r="1.5"/>
                    <circle id="Oval-Copy-15" cx="21.2000122" cy="6.40649414" r="1.5"/>
                    <circle id="Oval-Copy-24" cx="16.2750092" cy="11.3129883" r="1.5"/>
                    <circle id="Oval-Copy-7" cx="31.0500183" cy="1.5" r="1.5"/>
                    <circle id="Oval-Copy-16" cx="26.1250153" cy="6.40649414" r="1.5"/>
                    <circle id="Oval-Copy-25" cx="21.2000122" cy="11.3129883" r="1.5"/>
                    <circle id="Oval-Copy-8" cx="35.9750214" cy="1.5" r="1.5"/>
                    <circle id="Oval-Copy-17" cx="31.0500183" cy="6.40649414" r="1.5"/>
                    <circle id="Oval-Copy-26" cx="26.1250153" cy="11.3129883" r="1.5"/>
                    <circle id="Oval-Copy-9" cx="40.9000244" cy="1.5" r="1.5"/>
                    <circle id="Oval-Copy-18" cx="35.9750214" cy="6.40649414" r="1.5"/>
                    <circle id="Oval-Copy-27" cx="31.0500183" cy="11.3129883" r="1.5"/>
                    <circle id="Oval-Copy-10" cx="45.8250275" cy="1.5" r="1.5"/>
                    <circle id="Oval-Copy-19" cx="40.9000244" cy="6.40649414" r="1.5"/>
                    <circle id="Oval-Copy-28" cx="35.9750214" cy="11.3129883" r="1.5"/>
                    <circle id="Oval-Copy-11" cx="50.7500305" cy="1.5" r="1.5"/>
                    <circle id="Oval-Copy-20" cx="45.8250275" cy="6.40649414" r="1.5"/>
                    <circle id="Oval-Copy-29" cx="40.9000244" cy="11.3129883" r="1.5"/>
                </g>
            </g>
        </g>
    </symbol>
</svg>